<svg width="35" height="29" viewBox="0 0 35 29" fill="none" xmlns="http://www.w3.org/2000/svg">
<path d="M4.112 6.48596H1C0.447715 6.48596 0 6.93368 0 7.48596V21.5137C0 22.066 0.447715 22.5137 1 22.5137H4.112C4.66429 22.5137 5.112 22.066 5.112 21.5137V7.48596C5.112 6.93368 4.66429 6.48596 4.112 6.48596Z" fill="black" fill-opacity="0.5"/>
<path d="M14.0718 1.96655H10.9598C10.4076 1.96655 9.95984 2.41427 9.95984 2.96655V26.0332C9.95984 26.5855 10.4076 27.0332 10.9598 27.0332H14.0718C14.6241 27.0332 15.0718 26.5855 15.0718 26.0332V2.96655C15.0718 2.41427 14.6241 1.96655 14.0718 1.96655Z" fill="black" fill-opacity="0.5"/>
<path d="M33.9999 3.87219H30.8879C30.3357 3.87219 29.8879 4.31991 29.8879 4.87219V24.1277C29.8879 24.68 30.3357 25.1277 30.8879 25.1277H33.9999C34.5522 25.1277 34.9999 24.68 34.9999 24.1277V4.87219C34.9999 4.31991 34.5522 3.87219 33.9999 3.87219Z" fill="black" fill-opacity="0.5"/>
<path d="M24.036 0H20.924C20.3717 0 19.924 0.447716 19.924 1V28C19.924 28.5523 20.3717 29 20.924 29H24.036C24.5882 29 25.036 28.5523 25.036 28V1C25.036 0.447715 24.5882 0 24.036 0Z" fill="black" fill-opacity="0.5"/>
</svg>
